# Blender 5.1.2
# www.blender.org
mtllib cube.mtl
o Cube.001
v -0.925000 -0.925000 0.025000
v -0.925000 0.925000 0.025000
v -0.925000 -0.925000 -2.025000
v -0.925000 0.925000 -2.025000
v 0.925000 -0.925000 0.025000
v 0.925000 0.925000 0.025000
v 0.925000 -0.925000 -2.025000
v 0.925000 0.925000 -2.025000
v 0.975000 0.975000 -1.975000
v 0.975000 -0.975000 -1.975000
v 0.975000 0.975000 -0.025000
v 0.975000 -0.975000 -0.025000
v -0.975000 0.975000 -1.975000
v -0.975000 -0.975000 -1.975000
v -0.975000 0.975000 -0.025000
v -0.975000 -0.975000 -0.025000
v -1.025000 -0.925000 -0.075000
v -1.025000 0.925000 -0.075000
v -1.025000 0.925000 -1.925000
v -1.025000 -0.925000 -1.925000
v 1.025000 -0.925000 -1.925000
v 1.025000 0.925000 -1.925000
v 1.025000 0.925000 -0.075000
v 1.025000 -0.925000 -0.075000
v -0.925000 -1.025000 -1.925000
v -0.925000 -1.025000 -0.075000
v -0.925000 1.025000 -0.075000
v -0.925000 1.025000 -1.925000
v 0.925000 1.025000 -1.925000
v 0.925000 -1.025000 -1.925000
v 0.925000 -1.025000 -0.075000
v 0.925000 1.025000 -0.075000
v -1.025000 -1.025000 -2.025000
v -1.025000 -1.025000 0.025000
v -1.025000 1.025000 0.025000
v -1.025000 1.025000 -2.025000
v 1.025000 -1.025000 -2.025000
v 1.025000 1.025000 -2.025000
v 1.025000 -1.025000 0.025000
v 1.025000 1.025000 0.025000
v -0.925000 -0.925000 -0.075000
v -0.925000 0.925000 -0.075000
v -0.925000 0.925000 -1.925000
v 0.925000 0.925000 -1.925000
v 0.925000 0.925000 -0.075000
v 0.925000 -0.925000 -0.075000
v -0.925000 -0.925000 -1.925000
v 0.925000 -0.925000 -1.925000
vn -0.0000 -0.0000 1.0000
vn -1.0000 -0.0000 -0.0000
vn -0.0000 1.0000 -0.0000
vn -0.0000 -1.0000 -0.0000
vn 1.0000 -0.0000 -0.0000
vn -0.0000 -0.0000 -1.0000
vt 0.387195 0.012195
vt 0.612805 0.012195
vt 0.387195 0.762195
vt 0.612805 0.762195
vt 0.387195 0.512195
vt 0.612805 0.512195
vt 0.387195 0.262195
vt 0.612805 0.262195
vt 0.862805 0.737805
vt 0.637195 0.737805
vt 0.362805 0.737805
vt 0.137195 0.737805
vt 0.000100 0.999900
vt 0.000100 0.000100
vt 0.999900 0.000100
vt 0.999900 0.999900
vt 0.387195 0.737805
vt 0.612805 0.737805
vt 0.625000 0.750000
vt 0.375000 0.750000
vt 0.362805 0.512195
vt 0.137195 0.512195
vt 0.125000 0.500000
vt 0.375000 0.500000
vt 0.125000 0.750000
vt 0.625000 0.500000
vt 0.637195 0.512195
vt 0.862805 0.512195
vt 0.875000 0.500000
vt 0.875000 0.750000
vt 0.387195 0.987805
vt 0.375000 1.000000
vt 0.612805 0.987805
vt 0.625000 1.000000
vt 0.387195 0.487805
vt 0.375000 0.250000
vt 0.612805 0.237805
vt 0.625000 0.000000
vt 0.625000 0.250000
vt 0.375000 0.000000
vt 0.612805 0.487805
vt 0.387195 0.237805
s 1
usemtl Material.001
f 29/1/1 28/2/1 43/2/1 44/1/1
f 21/3/1 22/4/1 44/4/1 48/3/1
f 5/5/2 6/6/2 45/6/2 46/5/2
f 25/7/1 30/8/1 48/8/1 47/7/1
f 19/9/1 20/10/1 47/10/1 43/9/1
f 8/11/2 7/12/2 48/12/2 44/11/2
f 1/17/1 2/18/1 35/19/1 34/20/1
f 4/21/6 3/22/6 33/23/6 36/24/6
f 3/22/6 7/12/6 37/25/6 33/23/6
f 8/11/6 4/21/6 36/24/6 38/20/6
f 7/12/6 8/11/6 38/20/6 37/25/6
f 6/6/1 5/5/1 39/24/1 40/26/1
f 5/5/1 1/17/1 34/20/1 39/24/1
f 2/18/1 6/6/1 40/26/1 35/19/1
f 17/27/2 20/10/2 33/19/2 34/26/2
f 18/28/2 17/27/2 34/26/2 35/29/2
f 19/9/2 18/28/2 35/29/2 36/30/2
f 20/10/2 19/9/2 36/30/2 33/19/2
f 22/4/5 21/3/5 37/20/5 38/19/5
f 21/3/5 24/31/5 39/32/5 37/20/5
f 23/33/5 22/4/5 38/19/5 40/34/5
f 24/31/5 23/33/5 40/34/5 39/32/5
f 25/7/4 26/35/4 34/24/4 33/36/4
f 27/37/3 28/2/3 36/38/3 35/39/3
f 30/8/4 25/7/4 33/36/4 37/39/4
f 28/2/3 29/1/3 38/40/3 36/38/3
f 31/41/4 30/8/4 37/39/4 39/26/4
f 29/1/3 32/42/3 40/36/3 38/40/3
f 26/35/4 31/41/4 39/26/4 34/24/4
f 32/42/3 27/37/3 35/39/3 40/36/3
f 1/17/3 5/5/3 46/5/3 41/17/3
f 24/31/3 21/3/3 48/3/3 46/31/3
f 30/8/2 31/41/2 46/41/2 48/8/2
f 6/6/4 2/18/4 42/18/4 45/6/4
f 22/4/4 23/33/4 45/33/4 44/4/4
f 32/42/2 29/1/2 44/1/2 45/42/2
f 2/18/5 1/17/5 41/17/5 42/18/5
f 23/33/6 24/31/6 46/31/6 45/33/6
f 31/41/6 26/35/6 41/35/6 46/41/6
f 3/22/5 4/21/5 43/21/5 47/22/5
f 20/10/3 17/27/3 41/27/3 47/10/3
f 27/37/6 32/42/6 45/42/6 42/37/6
f 7/12/3 3/22/3 47/22/3 48/12/3
f 17/27/6 18/28/6 42/28/6 41/27/6
f 26/35/5 25/7/5 47/7/5 41/35/5
f 4/21/4 8/11/4 44/11/4 43/21/4
f 18/28/4 19/9/4 43/9/4 42/28/4
f 28/2/5 27/37/5 42/37/5 43/2/5
usemtl Transparent
f 9/13/3 13/14/3 15/15/3 11/16/3
f 14/15/4 10/16/4 12/13/4 16/14/4
f 12/15/1 11/16/1 15/13/1 16/14/1
f 10/15/5 9/16/5 11/13/5 12/14/5
f 14/14/6 13/15/6 9/16/6 10/13/6
f 16/14/2 15/15/2 13/16/2 14/13/2
